<svg height="128" width="128" xmlns="http://www.w3.org/2000/svg" xmlns:xlink="http://www.w3.org/1999/xlink"><linearGradient id="a" gradientUnits="userSpaceOnUse"><stop offset="0" stop-color="#63452c"/><stop offset=".038" stop-color="#865e3c"/><stop offset=".077" stop-color="#63452c"/><stop offset=".923" stop-color="#63452c"/><stop offset=".962" stop-color="#865e3c"/><stop offset="1" stop-color="#63452c"/></linearGradient><linearGradient id="d" gradientTransform="matrix(.23214 0 0 .20395 -8.567 207.653)" x1="88.596" x2="536.596" xlink:href="#a" y1="-449.394" y2="-449.394"/><linearGradient id="e" gradientUnits="userSpaceOnUse" x1="30" x2="104" y1="84" y2="98"><stop offset="0" stop-color="#deddda"/><stop offset="1" stop-color="#c0bfbc"/></linearGradient><linearGradient id="f" gradientTransform="matrix(.23214 0 0 .125 -8.567 146.174)" x1="88.596" x2="536.596" xlink:href="#a" y1="-449.394" y2="-449.394"/><linearGradient id="g" gradientTransform="matrix(.23214 0 0 .20395 -8.567 207.653)" gradientUnits="userSpaceOnUse" x1="88.596" x2="536.596" y1="-449.394" y2="-449.394"><stop offset="0" stop-color="#3d3846"/><stop offset=".038" stop-color="#77767b"/><stop offset=".077" stop-color="#3d3846"/><stop offset=".923" stop-color="#3d3846"/><stop offset=".962" stop-color="#77767b"/><stop offset="1" stop-color="#3d3846"/></linearGradient><linearGradient id="h" gradientUnits="userSpaceOnUse" x1="30" x2="104" y1="88" y2="102"><stop offset="0" stop-color="#f6f5f4"/><stop offset="1" stop-color="#deddda"/></linearGradient><filter id="b" height="100%" width="100%" x="0%" y="0%"><feColorMatrix in="SourceGraphic" values="0 0 0 0 1 0 0 0 0 1 0 0 0 0 1 0 0 0 1 0"/></filter><mask id="j"><g filter="url(#b)"><path fill-opacity=".4" d="M0 0h128v128H0z"/></g></mask><clipPath id="i"><path d="M0 0h192v152H0z"/></clipPath><mask id="l"><g filter="url(#b)"><path fill-opacity=".2" d="M0 0h128v128H0z"/></g></mask><clipPath id="k"><path d="M0 0h192v152H0z"/></clipPath><clipPath id="m"><path d="M12 76h104v8H12zm0 0"/></clipPath><mask id="o"><g filter="url(#b)"><path fill-opacity=".2" d="M0 0h128v128H0z"/></g></mask><clipPath id="n"><path d="M0 0h192v152H0z"/></clipPath><linearGradient id="p" gradientTransform="matrix(.25 0 0 .125 -14.149 136.174)" gradientUnits="userSpaceOnUse" x1="88.596" x2="536.596" y1="-449.394" y2="-449.394"><stop offset="0" stop-color="#1a5fb4"/><stop offset=".038" stop-color="#3584e4"/><stop offset=".077" stop-color="#1a5fb4"/><stop offset=".923" stop-color="#1a5fb4"/><stop offset=".962" stop-color="#3584e4"/><stop offset="1" stop-color="#1a5fb4"/></linearGradient><linearGradient id="q" gradientTransform="rotate(60 83.053 209)" gradientUnits="userSpaceOnUse" x1="61" x2="67" y1="220" y2="220"><stop offset="0" stop-color="#5e5c64"/><stop offset=".5" stop-color="#9a9996"/><stop offset="1" stop-color="#3d3846"/></linearGradient><linearGradient id="r" gradientTransform="matrix(2.66662 0 0 -2.66662 -106.664 -514.657)" gradientUnits="userSpaceOnUse" x1="58" x2="70" y1="-211" y2="-211"><stop offset="0" stop-color="#77767b"/><stop offset=".5" stop-color="#9a9996"/><stop offset="1" stop-color="#77767b"/></linearGradient><linearGradient id="s" gradientUnits="userSpaceOnUse" x1="58" x2="70" y1="39.5" y2="39.5"><stop offset="0" stop-color="#5e5c64"/><stop offset=".5" stop-color="#c0bfbc"/><stop offset="1" stop-color="#3d3846"/></linearGradient><linearGradient id="c" gradientUnits="userSpaceOnUse"><stop offset="0" stop-color="#77767b"/><stop offset=".5" stop-color="#c0bfbc"/><stop offset="1" stop-color="#77767b"/></linearGradient><linearGradient id="t" gradientTransform="matrix(1.99998 0 0 -1.99998 -63.998 -393.995)" x1="58" x2="70" xlink:href="#c" y1="-211" y2="-211"/><radialGradient id="u" cx="-194.837" cy="-64" gradientTransform="matrix(0 -.7747 -.7747 0 14.42 -130.439)" gradientUnits="userSpaceOnUse" r="8"><stop offset="0" stop-color="#deddda"/><stop offset="1" stop-color="#77767b"/></radialGradient><linearGradient id="v" gradientTransform="rotate(60 83.053 209)" x1="61" x2="67" xlink:href="#c" y1="220" y2="220"/><path d="M20 54h88a8 8 0 0 1 8 8v46a8 8 0 0 1-8 8H20a8 8 0 0 1-8-8V62a8 8 0 0 1 8-8zm0 0" fill="url(#d)"/><path d="M20 54h88v46H20zm0 0" fill="url(#e)"/><path d="M20 28h88v66H20zm0 0" fill="#f6f5f4"/><path d="M20 52h88a8 8 0 0 1 8 8v22a8 8 0 0 1-8 8H20a8 8 0 0 1-8-8V60a8 8 0 0 1 8-8zm0 0" fill="url(#f)"/><path d="M20 54h88a8 8 0 0 1 8 8v46a8 8 0 0 1-8 8H20a8 8 0 0 1-8-8V62a8 8 0 0 1 8-8zm0 0" fill="url(#g)"/><path d="M21.453 52h85.094c5.219 0 9.453 3.582 9.453 8v44c0 4.418-4.234 8-9.453 8H21.453c-5.219 0-9.453-3.582-9.453-8V60c0-4.418 4.234-8 9.453-8zm0 0" fill="#5e5c64"/><path d="M20 58h88v46H20zm0 0" fill="url(#h)"/><g fill-opacity=".137"><path d="M108 102h-.5v1h.5zm-44.508 0 44 1v-1zm0 0"/><path d="M108 102h-.5v1h.5zm-44.508 0 44 1v-1zM108 100h-.5v1h.5zm-47.508 0 47 1v-1zM108 98h-.5v1h.5zm-50.508 0 50 1v-1zm0 0"/><path d="M20 96h88v8H20zm0 0"/></g><g clip-path="url(#i)" mask="url(#j)" transform="translate(-8 -16)"><path d="M34 94h4v14h-4zm0 0" fill="#241f31"/></g><g clip-path="url(#k)" fill="#241f31" mask="url(#l)" transform="translate(-8 -16)"><path d="M48.535 99H58v9h-9.465zm0 0"/><path d="M44 94h10v14H44zM64 94h18v14H64zm0 0"/><path d="M80 102h6v6h-6zM92 94h6v14h-6zm0 0"/></g><g clip-path="url(#m)"><g clip-path="url(#n)" mask="url(#o)" transform="translate(-8 -16)"><path d="M25.453 44h93.094c5.219 0 9.453 3.582 9.453 8v40c0 4.418-4.234 8-9.453 8H25.453C20.234 100 16 96.418 16 92V52c0-4.418 4.234-8 9.453-8zm0 0"/></g></g><path d="M16 42h96a8 8 0 0 1 8 8v22a8 8 0 0 1-8 8H16a8 8 0 0 1-8-8V50a8 8 0 0 1 8-8zm0 0" fill="url(#p)"/><path d="M17.453 20h93.094c5.219 0 9.453 3.582 9.453 8v40c0 4.418-4.234 8-9.453 8H17.453C12.234 76 8 72.418 8 68V28c0-4.418 4.234-8 9.453-8zm0 0" fill="#3584e4"/><path d="m32.824 216 62.352-36" fill="none" stroke="url(#q)" stroke-linecap="round" stroke-width="6" transform="translate(0 -172)"/><path d="M80 48c0-8.836-7.164-16-16-16s-16 7.164-16 16 7.164 16 16 16 16-7.164 16-16zm0 0" fill="url(#r)"/><path d="M64 30c-8.836 0-16 7.164-16 16s7.164 16 16 16 16-7.164 16-16-7.164-16-16-16zm0 0" fill="#deddda"/><path d="m59 27-1 2 1 2-1 2 1 2-1 2 1 2-1 2 1 2-1 2v1a5.998 5.998 0 0 0 9 5.195c1.855-1.07 3-3.05 3-5.195v-3l-1-2 1-2-1-2 1-2-1-2 1-2-1-2 1-2-1-2zm0 0" fill="url(#s)"/><path d="M69 29s-1.352 3.656-4.91 4.016C60.527 33.375 59 31 59 31l-1 2s2.094 2.781 6.09 2.55c3.996-.234 5.785-4.51 5.91-4.55zm0 0" fill="#fff" fill-opacity=".38"/><path d="M70 31c-.125.04-1.914 4.316-5.91 4.55C60.094 35.782 58 33 58 33l1 2s1.527 2.375 5.09 2.016C67.648 36.656 69 33 69 33l.043.086zm0 0" fill="#241f31" fill-opacity=".337"/><path d="M69 37s-1.352 3.656-4.91 4.016C60.527 41.375 59 39 59 39l-1 2s2.094 2.781 6.09 2.55c3.996-.234 5.785-4.51 5.91-4.55zm0 0" fill="#fff" fill-opacity=".38"/><path d="M69 41s-1.441 3.656-5 4.016S59 43 59 43l-1 2s2.004 2.781 6 2.55c3.996-.234 5.875-4.51 6-4.55zM69 33s-1.352 3.656-4.91 4.016C60.527 37.375 59 35 59 35l-1 2s2.094 2.781 6.09 2.55c3.996-.234 5.785-4.51 5.91-4.55zm0 0" fill="#fff" fill-opacity=".38"/><path d="M70 39c-.125.04-1.914 4.316-5.91 4.55S58 41 58 41l1 2s1.527 2.375 5.09 2.016C67.648 44.656 69 41 69 41l.043.086zm0 0" fill="#241f31" fill-opacity=".337"/><path d="M70 35c-.125.04-1.914 4.316-5.91 4.55C60.094 39.782 58 37 58 37l1 2s1.527 2.375 5.09 2.016C67.648 40.656 69 37 69 37l.043.086zm0 0" fill="#241f31" fill-opacity=".337"/><path d="M76 28c0-6.629-5.371-12-12-12s-12 5.371-12 12 5.371 12 12 12 12-5.371 12-12zm0 0" fill="url(#t)"/><path d="M64 10c-6.629 0-12 5.371-12 12s5.371 12 12 12 12-5.371 12-12-5.371-12-12-12zm0 0" fill="#deddda"/><path d="M52.023 27.406c-.015.2-.02.395-.023.594 0 6.629 5.371 12 12 12s12-5.371 12-12c-.004-.137-.012-.27-.02-.406C75.664 33.98 70.395 38.996 64 39c-6.465-.008-11.758-5.133-11.977-11.594zm0 0" fill="#77767b"/><path d="M64 16c-3.313 0-6 2.688-6 6s2.688 6 6 6 6-2.688 6-6-2.688-6-6-6zm0 0" fill="url(#u)"/><path d="M32.824 216 52.41 204.69" fill="#77767b" stroke="url(#v)" stroke-linecap="round" stroke-width="6" transform="translate(0 -172)"/><path d="M32.824 216 52.41 204.69" fill="#77767b" stroke="url(#q)" stroke-linecap="round" stroke-width="6" transform="translate(0 -172)"/></svg>