<?xml version="1.0" encoding="UTF-8"?>
<svg xmlns="http://www.w3.org/2000/svg" xmlns:xlink="http://www.w3.org/1999/xlink" width="16px" height="16px" viewBox="0 0 16 16" version="1.1">
<g id="surface543414">
<path style=" stroke:none;fill-rule:nonzero;fill:rgb(18.039216%,20.392157%,21.176471%);fill-opacity:1;" d="M 3.992188 3 C 3.992188 3 3.285156 2.988281 2.546875 3.355469 C 1.808594 3.726562 0.992188 4.667969 0.992188 6 L 0.992188 13 L -0.0078125 13 L -0.0117188 15 L -0.0078125 15 L 2.992188 15.011719 L 2.992188 15 L 15.992188 15 L 15.992188 13 L 16.003906 13 L 16.003906 5.691406 C 16.003906 4.261719 14.832031 3.058594 13.378906 3.042969 L 11 3.023438 C 11 3.023438 12 3.847656 12 4.988281 L 13.046875 5.03125 C 13.585938 5.054688 13.988281 5.527344 13.988281 6.007812 L 13.988281 13 L 11 13 L 11 6 C 11 6 11.011719 5.289062 10.644531 4.550781 C 10.273438 3.8125 9.332031 3 8 3 Z M 3.992188 3 "/>
</g>
</svg>
