<?xml version="1.0" encoding="UTF-8"?>
<svg xmlns="http://www.w3.org/2000/svg" xmlns:xlink="http://www.w3.org/1999/xlink" width="16px" height="16px" viewBox="0 0 16 16" version="1.1">
<g id="surface390543">
<path style=" stroke:none;fill-rule:nonzero;fill:rgb(18.039216%,20.392157%,21.176471%);fill-opacity:1;" d="M 6 13 C 6 13.550781 5.550781 14 5 14 C 4.449219 14 4 13.550781 4 13 C 4 12.449219 4.449219 12 5 12 C 5.550781 12 6 12.449219 6 13 Z M 6 13 "/>
<path style=" stroke:none;fill-rule:nonzero;fill:rgb(18.039216%,20.392157%,21.176471%);fill-opacity:1;" d="M 9 13 C 9 13.550781 8.550781 14 8 14 C 7.449219 14 7 13.550781 7 13 C 7 12.449219 7.449219 12 8 12 C 8.550781 12 9 12.449219 9 13 Z M 9 13 "/>
<path style=" stroke:none;fill-rule:nonzero;fill:rgb(18.039216%,20.392157%,21.176471%);fill-opacity:1;" d="M 12 13 C 12 13.550781 11.550781 14 11 14 C 10.449219 14 10 13.550781 10 13 C 10 12.449219 10.449219 12 11 12 C 11.550781 12 12 12.449219 12 13 Z M 12 13 "/>
<path style=" stroke:none;fill-rule:nonzero;fill:rgb(18.039216%,20.392157%,21.176471%);fill-opacity:1;" d="M 5 2 C 3.910156 2 3 2.910156 3 4 L 3 9 C 3 10.089844 3.910156 11 5 11 L 11 11 C 12.089844 11 13 10.089844 13 9 L 13 4 C 13 2.910156 12.089844 2 11 2 Z M 5 4 L 11 4 L 11 9 L 5 9 Z M 5 4 "/>
<path style=" stroke:none;fill-rule:nonzero;fill:rgb(18.039216%,20.392157%,21.176471%);fill-opacity:1;" d="M 2 3 C 0.910156 3 0 3.910156 0 5 L 0 8 C 0 9.089844 0.910156 10 2 10 Z M 2 3 "/>
<path style=" stroke:none;fill-rule:nonzero;fill:rgb(18.039216%,20.392157%,21.176471%);fill-opacity:1;" d="M 14 3 C 15.089844 3 16 3.910156 16 5 L 16 8 C 16 9.089844 15.089844 10 14 10 Z M 14 3 "/>
</g>
</svg>
