<?xml version="1.0" encoding="UTF-8"?>
<svg xmlns="http://www.w3.org/2000/svg" xmlns:xlink="http://www.w3.org/1999/xlink" width="16px" height="16px" viewBox="0 0 16 16" version="1.1">
<g id="surface390549">
<path style=" stroke:none;fill-rule:nonzero;fill:rgb(18.039216%,20.392157%,21.176471%);fill-opacity:0.35;" d="M 6 11.972656 L 6 3.972656 L 3 3.972656 L 3 11.972656 Z M 6 11.972656 "/>
<path style=" stroke:none;fill-rule:nonzero;fill:rgb(18.039216%,20.392157%,21.176471%);fill-opacity:1;" d="M 8 2 L 9 2 L 9 14 L 8 14 Z M 3 1.996094 C 1.910156 1.996094 1 2.90625 1 3.996094 L 1 11.972656 C 1 13.0625 1.910156 13.972656 3 13.972656 L 7 13.972656 L 7 1.996094 Z M 10 1.996094 L 10 13.972656 L 11 13.972656 L 11 1.996094 Z M 11.96875 1.996094 L 11.96875 3.996094 L 13 3.996094 L 13 11.972656 L 11.96875 11.972656 L 11.96875 13.972656 L 13 13.972656 C 13.96875 13.972656 15 13.046875 15 11.972656 L 15 3.996094 C 15 2.90625 14.089844 1.996094 13 1.996094 Z M 3 3.996094 L 6 3.996094 L 6 11.972656 L 3 11.972656 Z M 3 3.996094 "/>
</g>
</svg>
