<?xml version="1.0" encoding="UTF-8"?>
<svg xmlns="http://www.w3.org/2000/svg" xmlns:xlink="http://www.w3.org/1999/xlink" width="16px" height="16px" viewBox="0 0 16 16" version="1.1">
<g id="surface390564">
<path style=" stroke:none;fill-rule:nonzero;fill:rgb(18.039216%,20.392157%,21.176471%);fill-opacity:1;" d="M 3 1 C 1.910156 1 1 1.910156 1 3 L 1 13 C 1 14.089844 1.910156 15 3 15 L 13 15 C 14.089844 15 15 14.089844 15 13 L 15 3 C 15 1.910156 14.089844 1 13 1 Z M 4.976562 2 C 5.53125 2 5.984375 2.453125 5.984375 3.007812 C 5.984375 3.566406 5.535156 4.015625 4.976562 4.019531 C 4.417969 4.015625 3.96875 3.566406 3.96875 3.007812 C 3.96875 2.453125 4.421875 2 4.976562 2 Z M 7.957031 2 C 8.511719 2 8.964844 2.453125 8.964844 3.007812 C 8.964844 3.566406 8.515625 4.015625 7.957031 4.019531 C 7.398438 4.015625 6.949219 3.566406 6.949219 3.007812 C 6.949219 2.453125 7.402344 2 7.957031 2 Z M 11 2 C 11.558594 2 12.011719 2.449219 12.011719 3.007812 C 12.011719 3.277344 11.90625 3.53125 11.714844 3.722656 C 11.527344 3.910156 11.269531 4.019531 11 4.019531 C 10.445312 4.015625 9.992188 3.566406 9.992188 3.007812 C 9.996094 2.453125 10.445312 2 11 2 Z M 3 5 L 13 5 L 13 13 L 3 13 Z M 3 5 "/>
</g>
</svg>
