<?xml version="1.0" encoding="UTF-8" standalone="no"?>
<svg
   width="16px"
   height="16px"
   viewBox="0 0 16 16"
   version="1.1"
   id="svg7"
   sodipodi:docname="widget-leaflet-symbolic.svg"
   inkscape:version="1.1 (c68e22c387, 2021-05-23)"
   xmlns:inkscape="http://www.inkscape.org/namespaces/inkscape"
   xmlns:sodipodi="http://sodipodi.sourceforge.net/DTD/sodipodi-0.dtd"
   xmlns="http://www.w3.org/2000/svg"
   xmlns:svg="http://www.w3.org/2000/svg">
  <defs
     id="defs11" />
  <sodipodi:namedview
     id="namedview9"
     pagecolor="#ffffff"
     bordercolor="#666666"
     borderopacity="1.0"
     inkscape:pageshadow="2"
     inkscape:pageopacity="0.0"
     inkscape:pagecheckerboard="0"
     showgrid="false"
     inkscape:zoom="54.5625"
     inkscape:cx="8"
     inkscape:cy="8.0091638"
     inkscape:window-width="1920"
     inkscape:window-height="1011"
     inkscape:window-x="0"
     inkscape:window-y="0"
     inkscape:window-maximized="1"
     inkscape:current-layer="svg7" />
  <g
     id="surface390556">
    <path
       style=" stroke:none;fill-rule:nonzero;fill:rgb(18.039216%,20.392157%,21.176471%);fill-opacity:1;"
       d="M 3 1.996094 C 1.910156 1.996094 1 2.90625 1 3.996094 L 1 11.972656 C 1 13.0625 1.910156 13.972656 3 13.972656 L 9 13.972656 L 9 1.996094 Z M 10 1.996094 L 10 3.996094 L 13 3.996094 L 13 11.972656 L 10 11.972656 L 10 13.972656 L 13 13.972656 C 13.96875 13.972656 15 13.046875 15 11.972656 L 15 3.996094 C 15 2.90625 14.089844 1.996094 13 1.996094 Z M 3 3.996094 L 8 3.996094 L 8 11.972656 L 3 11.972656 Z M 3 3.996094 "
       id="path2" />
    <path
       style="color:#000000;fill:#2e3335;stroke-linecap:round;-inkscape-stroke:none"
       d="m 25.638672,304.95898 a 0.5,0.5 0 0 0 0,0.70704 l 2.353515,2.35351 2.353516,-2.35351 a 0.5,0.5 0 0 0 0,-0.70704 0.5,0.5 0 0 0 -0.707031,0 l -1.646485,1.64649 -1.646484,-1.64649 a 0.5,0.5 0 0 0 -0.707031,0 z"
       id="path4"
       transform="matrix(0.000000000000000061,1,-1,0.000000000000000061,311.999939,-19.992126)" />
  </g>
</svg>
