<svg width="16" height="16" xmlns="http://www.w3.org/2000/svg"><path style="fill:#2e3436;fill-opacity:1;stroke-width:1px;stroke-linejoin:miter" d="M11.04 2.004a.951.951 0 0 0-.727.281L8 4.578V6h1.39l2.305-2.299a1.017 1.017 0 0 0 .03-1.392 1.008 1.008 0 0 0-.686-.305ZM8 7v2h4c.75 0 1-.501 1-1.002 0-.5-.25-.998-1-.998Zm0 3v1.422l2.322 2.293c.405.411 1.065.346 1.414-.024a1.017 1.017 0 0 0-.03-1.392L9.39 10Z"/><path style="fill:#2e3436" d="M7 2a1 1 0 0 0-.768.354L4 5H3c-1.108 0-2 .892-2 2v2c0 1.108.892 2 2 2h1.004l2.228 2.635a.97.97 0 0 0 .768.36Z"/></svg>